<mxfile host="app.diagrams.net" modified="2021-02-12T07:48:40.236Z" agent="5.0 (Windows NT 10.0; Win64; x64) AppleWebKit/537.36 (KHTML, like Gecko) Chrome/88.0.4324.150 Safari/537.36" etag="qfihMbDrcJBCyVuLJzJT" version="14.3.1" type="github">
  <diagram name="Page-1" id="c4acf3e9-155e-7222-9cf6-157b1a14988f">
    <mxGraphModel dx="1038" dy="532" grid="1" gridSize="10" guides="1" tooltips="1" connect="1" arrows="1" fold="1" page="1" pageScale="1" pageWidth="850" pageHeight="1100" background="#ffffff" math="0" shadow="0">
      <root>
        <mxCell id="0" />
        <mxCell id="1" parent="0" />
        <mxCell id="8NRc52Uxz8B7yWI2qlzn-86" value="" style="edgeStyle=orthogonalEdgeStyle;rounded=0;orthogonalLoop=1;jettySize=auto;html=1;endArrow=open;endFill=0;entryX=1;entryY=0.5;entryDx=0;entryDy=0;" parent="1" source="17acba5748e5396b-20" target="8NRc52Uxz8B7yWI2qlzn-34" edge="1">
          <mxGeometry relative="1" as="geometry">
            <Array as="points">
              <mxPoint x="385" y="389" />
            </Array>
          </mxGeometry>
        </mxCell>
        <mxCell id="mBPvuGCudgX4nE0HCD5w-24" value="" style="edgeStyle=orthogonalEdgeStyle;rounded=0;orthogonalLoop=1;jettySize=auto;html=1;endArrow=open;endFill=0;entryX=0;entryY=0.5;entryDx=0;entryDy=0;" edge="1" parent="1" source="17acba5748e5396b-20" target="8NRc52Uxz8B7yWI2qlzn-68">
          <mxGeometry relative="1" as="geometry">
            <mxPoint x="345" y="197" as="targetPoint" />
            <Array as="points">
              <mxPoint x="410" y="484" />
            </Array>
          </mxGeometry>
        </mxCell>
        <mxCell id="17acba5748e5396b-20" value="&lt;font style=&quot;vertical-align: inherit&quot;&gt;&lt;font style=&quot;vertical-align: inherit&quot;&gt;UserController&lt;/font&gt;&lt;/font&gt;" style="swimlane;html=1;fontStyle=0;childLayout=stackLayout;horizontal=1;startSize=26;fillColor=none;horizontalStack=0;resizeParent=1;resizeLast=0;collapsible=1;marginBottom=0;swimlaneFillColor=#ffffff;rounded=0;shadow=0;comic=0;labelBackgroundColor=none;strokeWidth=1;fontFamily=Verdana;fontSize=10;align=center;" parent="1" vertex="1">
          <mxGeometry x="305" y="30" width="160" height="78" as="geometry" />
        </mxCell>
        <mxCell id="17acba5748e5396b-21" value="&lt;font style=&quot;vertical-align: inherit&quot;&gt;&lt;font style=&quot;vertical-align: inherit&quot;&gt;+ authenticationAction()&lt;/font&gt;&lt;/font&gt;" style="text;html=1;strokeColor=none;fillColor=none;align=left;verticalAlign=top;spacingLeft=4;spacingRight=4;whiteSpace=wrap;overflow=hidden;rotatable=0;points=[[0,0.5],[1,0.5]];portConstraint=eastwest;" parent="17acba5748e5396b-20" vertex="1">
          <mxGeometry y="26" width="160" height="26" as="geometry" />
        </mxCell>
        <mxCell id="17acba5748e5396b-24" value="&lt;font style=&quot;vertical-align: inherit&quot;&gt;&lt;font style=&quot;vertical-align: inherit&quot;&gt;&lt;font style=&quot;vertical-align: inherit&quot;&gt;&lt;font style=&quot;vertical-align: inherit&quot;&gt;+&amp;nbsp;logoutAction()&lt;/font&gt;&lt;/font&gt;&lt;/font&gt;&lt;/font&gt;" style="text;html=1;strokeColor=none;fillColor=none;align=left;verticalAlign=top;spacingLeft=4;spacingRight=4;whiteSpace=wrap;overflow=hidden;rotatable=0;points=[[0,0.5],[1,0.5]];portConstraint=eastwest;" parent="17acba5748e5396b-20" vertex="1">
          <mxGeometry y="52" width="160" height="26" as="geometry" />
        </mxCell>
        <mxCell id="17acba5748e5396b-30" value="&lt;font style=&quot;vertical-align: inherit&quot;&gt;&lt;font style=&quot;vertical-align: inherit&quot;&gt;MainController&lt;/font&gt;&lt;/font&gt;" style="swimlane;html=1;fontStyle=0;childLayout=stackLayout;horizontal=1;startSize=26;fillColor=none;horizontalStack=0;resizeParent=1;resizeLast=0;collapsible=1;marginBottom=0;swimlaneFillColor=#ffffff;rounded=0;shadow=0;comic=0;labelBackgroundColor=none;strokeWidth=1;fontFamily=Verdana;fontSize=10;align=center;" parent="1" vertex="1">
          <mxGeometry x="580" y="87" width="160" height="53" as="geometry" />
        </mxCell>
        <mxCell id="17acba5748e5396b-31" value="&lt;font style=&quot;vertical-align: inherit&quot;&gt;&lt;font style=&quot;vertical-align: inherit&quot;&gt;&lt;font style=&quot;vertical-align: inherit&quot;&gt;&lt;font style=&quot;vertical-align: inherit&quot;&gt;+&amp;nbsp;indexAction()&lt;/font&gt;&lt;/font&gt;&lt;/font&gt;&lt;/font&gt;" style="text;html=1;strokeColor=none;fillColor=none;align=left;verticalAlign=top;spacingLeft=4;spacingRight=4;whiteSpace=wrap;overflow=hidden;rotatable=0;points=[[0,0.5],[1,0.5]];portConstraint=eastwest;" parent="17acba5748e5396b-30" vertex="1">
          <mxGeometry y="26" width="160" height="26" as="geometry" />
        </mxCell>
        <mxCell id="8NRc52Uxz8B7yWI2qlzn-90" value="" style="edgeStyle=orthogonalEdgeStyle;rounded=0;orthogonalLoop=1;jettySize=auto;html=1;endArrow=open;endFill=0;entryX=1;entryY=0.5;entryDx=0;entryDy=0;" parent="1" source="17acba5748e5396b-44" target="8NRc52Uxz8B7yWI2qlzn-81" edge="1">
          <mxGeometry relative="1" as="geometry">
            <Array as="points">
              <mxPoint x="770" y="1035" />
            </Array>
          </mxGeometry>
        </mxCell>
        <mxCell id="mBPvuGCudgX4nE0HCD5w-11" value="" style="edgeStyle=orthogonalEdgeStyle;rounded=0;orthogonalLoop=1;jettySize=auto;html=1;endArrow=open;endFill=0;entryX=1;entryY=0.5;entryDx=0;entryDy=0;" edge="1" parent="1" source="17acba5748e5396b-44" target="8NRc52Uxz8B7yWI2qlzn-59">
          <mxGeometry relative="1" as="geometry" />
        </mxCell>
        <mxCell id="mBPvuGCudgX4nE0HCD5w-15" value="" style="edgeStyle=orthogonalEdgeStyle;rounded=0;orthogonalLoop=1;jettySize=auto;html=1;endArrow=open;endFill=0;entryX=0.5;entryY=0;entryDx=0;entryDy=0;" edge="1" parent="1" source="17acba5748e5396b-44" target="8NRc52Uxz8B7yWI2qlzn-16">
          <mxGeometry relative="1" as="geometry" />
        </mxCell>
        <mxCell id="17acba5748e5396b-44" value="&lt;font style=&quot;vertical-align: inherit&quot;&gt;&lt;font style=&quot;vertical-align: inherit&quot;&gt;ProductController&lt;/font&gt;&lt;/font&gt;" style="swimlane;html=1;fontStyle=0;childLayout=stackLayout;horizontal=1;startSize=26;fillColor=none;horizontalStack=0;resizeParent=1;resizeLast=0;collapsible=1;marginBottom=0;swimlaneFillColor=#ffffff;rounded=0;shadow=0;comic=0;labelBackgroundColor=none;strokeWidth=1;fontFamily=Verdana;fontSize=10;align=center;" parent="1" vertex="1">
          <mxGeometry x="660" y="670" width="160" height="83" as="geometry" />
        </mxCell>
        <mxCell id="17acba5748e5396b-45" value="&lt;font style=&quot;vertical-align: inherit&quot;&gt;&lt;font style=&quot;vertical-align: inherit&quot;&gt;+&amp;nbsp;infoAction()&lt;/font&gt;&lt;/font&gt;" style="text;html=1;strokeColor=none;fillColor=none;align=left;verticalAlign=top;spacingLeft=4;spacingRight=4;whiteSpace=wrap;overflow=hidden;rotatable=0;points=[[0,0.5],[1,0.5]];portConstraint=eastwest;" parent="17acba5748e5396b-44" vertex="1">
          <mxGeometry y="26" width="160" height="26" as="geometry" />
        </mxCell>
        <mxCell id="17acba5748e5396b-47" value="&lt;font style=&quot;vertical-align: inherit&quot;&gt;&lt;font style=&quot;vertical-align: inherit&quot;&gt;+&amp;nbsp;listAction()&lt;/font&gt;&lt;/font&gt;" style="text;html=1;strokeColor=none;fillColor=none;align=left;verticalAlign=top;spacingLeft=4;spacingRight=4;whiteSpace=wrap;overflow=hidden;rotatable=0;points=[[0,0.5],[1,0.5]];portConstraint=eastwest;" parent="17acba5748e5396b-44" vertex="1">
          <mxGeometry y="52" width="160" height="26" as="geometry" />
        </mxCell>
        <mxCell id="5d2195bd80daf111-18" value="&lt;p style=&quot;margin: 0px ; margin-top: 4px ; text-align: center&quot;&gt;&lt;i&gt;&amp;lt;&amp;lt;Interface&amp;gt;&amp;gt;&lt;/i&gt;&lt;br&gt;&lt;b&gt;ISecurity&lt;/b&gt;&lt;/p&gt;&lt;hr size=&quot;1&quot;&gt;&lt;p style=&quot;margin: 0px ; margin-left: 4px&quot;&gt;+ getUser()&lt;br&gt;+ isLogged(): bool&lt;/p&gt;&lt;p style=&quot;margin: 0px ; margin-left: 4px&quot;&gt;+ authentication(): bool&lt;br&gt;&lt;/p&gt;&lt;p style=&quot;margin: 0px ; margin-left: 4px&quot;&gt;+&amp;nbsp;logout(): void&lt;/p&gt;" style="verticalAlign=top;align=left;overflow=fill;fontSize=12;fontFamily=Helvetica;html=1;rounded=0;shadow=0;comic=0;labelBackgroundColor=none;strokeWidth=1" parent="1" vertex="1">
          <mxGeometry x="60" y="87" width="190" height="113" as="geometry" />
        </mxCell>
        <mxCell id="mBPvuGCudgX4nE0HCD5w-2" value="" style="edgeStyle=orthogonalEdgeStyle;rounded=0;orthogonalLoop=1;jettySize=auto;html=1;entryX=0;entryY=0.5;entryDx=0;entryDy=0;endArrow=open;endFill=0;exitX=0;exitY=0;exitDx=0;exitDy=0;" edge="1" parent="1" source="mBPvuGCudgX4nE0HCD5w-10" target="8NRc52Uxz8B7yWI2qlzn-17">
          <mxGeometry relative="1" as="geometry">
            <Array as="points">
              <mxPoint x="400" y="889" />
            </Array>
          </mxGeometry>
        </mxCell>
        <mxCell id="mBPvuGCudgX4nE0HCD5w-9" value="" style="edgeStyle=orthogonalEdgeStyle;rounded=0;orthogonalLoop=1;jettySize=auto;html=1;endArrow=open;endFill=0;entryX=1;entryY=0.5;entryDx=0;entryDy=0;dashed=1;" edge="1" parent="1" source="8NRc52Uxz8B7yWI2qlzn-4" target="8NRc52Uxz8B7yWI2qlzn-75">
          <mxGeometry relative="1" as="geometry" />
        </mxCell>
        <mxCell id="mBPvuGCudgX4nE0HCD5w-21" value="" style="edgeStyle=orthogonalEdgeStyle;rounded=0;orthogonalLoop=1;jettySize=auto;html=1;endArrow=open;endFill=0;entryX=0.5;entryY=0;entryDx=0;entryDy=0;" edge="1" parent="1" source="8NRc52Uxz8B7yWI2qlzn-4" target="8NRc52Uxz8B7yWI2qlzn-79">
          <mxGeometry relative="1" as="geometry">
            <mxPoint x="390" y="987" as="targetPoint" />
            <Array as="points">
              <mxPoint x="380" y="920" />
              <mxPoint x="390" y="920" />
            </Array>
          </mxGeometry>
        </mxCell>
        <mxCell id="8NRc52Uxz8B7yWI2qlzn-4" value="Product" style="swimlane;fontStyle=1;align=center;verticalAlign=top;childLayout=stackLayout;horizontal=1;startSize=26;horizontalStack=0;resizeParent=1;resizeParentMax=0;resizeLast=0;collapsible=1;marginBottom=0;" parent="1" vertex="1">
          <mxGeometry x="320" y="626" width="160" height="178" as="geometry" />
        </mxCell>
        <mxCell id="8NRc52Uxz8B7yWI2qlzn-5" value="- id: int" style="text;strokeColor=none;fillColor=none;align=left;verticalAlign=top;spacingLeft=4;spacingRight=4;overflow=hidden;rotatable=0;points=[[0,0.5],[1,0.5]];portConstraint=eastwest;" parent="8NRc52Uxz8B7yWI2qlzn-4" vertex="1">
          <mxGeometry y="26" width="160" height="24" as="geometry" />
        </mxCell>
        <mxCell id="8NRc52Uxz8B7yWI2qlzn-60" value="- name: string" style="text;strokeColor=none;fillColor=none;align=left;verticalAlign=top;spacingLeft=4;spacingRight=4;overflow=hidden;rotatable=0;points=[[0,0.5],[1,0.5]];portConstraint=eastwest;" parent="8NRc52Uxz8B7yWI2qlzn-4" vertex="1">
          <mxGeometry y="50" width="160" height="24" as="geometry" />
        </mxCell>
        <mxCell id="8NRc52Uxz8B7yWI2qlzn-59" value="- price: float" style="text;strokeColor=none;fillColor=none;align=left;verticalAlign=top;spacingLeft=4;spacingRight=4;overflow=hidden;rotatable=0;points=[[0,0.5],[1,0.5]];portConstraint=eastwest;" parent="8NRc52Uxz8B7yWI2qlzn-4" vertex="1">
          <mxGeometry y="74" width="160" height="24" as="geometry" />
        </mxCell>
        <mxCell id="8NRc52Uxz8B7yWI2qlzn-6" value="" style="line;strokeWidth=1;fillColor=none;align=left;verticalAlign=middle;spacingTop=-1;spacingLeft=3;spacingRight=3;rotatable=0;labelPosition=right;points=[];portConstraint=eastwest;" parent="8NRc52Uxz8B7yWI2qlzn-4" vertex="1">
          <mxGeometry y="98" width="160" height="8" as="geometry" />
        </mxCell>
        <mxCell id="8NRc52Uxz8B7yWI2qlzn-7" value="+ getName(): string" style="text;strokeColor=none;fillColor=none;align=left;verticalAlign=top;spacingLeft=4;spacingRight=4;overflow=hidden;rotatable=0;points=[[0,0.5],[1,0.5]];portConstraint=eastwest;" parent="8NRc52Uxz8B7yWI2qlzn-4" vertex="1">
          <mxGeometry y="106" width="160" height="24" as="geometry" />
        </mxCell>
        <mxCell id="8NRc52Uxz8B7yWI2qlzn-63" value="+ getPrice(): float" style="text;strokeColor=none;fillColor=none;align=left;verticalAlign=top;spacingLeft=4;spacingRight=4;overflow=hidden;rotatable=0;points=[[0,0.5],[1,0.5]];portConstraint=eastwest;" parent="8NRc52Uxz8B7yWI2qlzn-4" vertex="1">
          <mxGeometry y="130" width="160" height="24" as="geometry" />
        </mxCell>
        <mxCell id="8NRc52Uxz8B7yWI2qlzn-62" value="+ toArray(): array" style="text;strokeColor=none;fillColor=none;align=left;verticalAlign=top;spacingLeft=4;spacingRight=4;overflow=hidden;rotatable=0;points=[[0,0.5],[1,0.5]];portConstraint=eastwest;" parent="8NRc52Uxz8B7yWI2qlzn-4" vertex="1">
          <mxGeometry y="154" width="160" height="24" as="geometry" />
        </mxCell>
        <mxCell id="mBPvuGCudgX4nE0HCD5w-10" value="" style="whiteSpace=wrap;html=1;rounded=0;shadow=0;fontFamily=Verdana;fontSize=10;fontStyle=0;strokeWidth=1;fillColor=none;swimlaneFillColor=#ffffff;startSize=26;comic=0;" vertex="1" parent="8NRc52Uxz8B7yWI2qlzn-4">
          <mxGeometry y="178" width="160" as="geometry" />
        </mxCell>
        <mxCell id="mBPvuGCudgX4nE0HCD5w-19" value="" style="whiteSpace=wrap;html=1;rounded=0;shadow=0;fontFamily=Verdana;fontSize=10;fontStyle=0;strokeWidth=1;fillColor=none;swimlaneFillColor=#ffffff;startSize=26;comic=0;" vertex="1" parent="8NRc52Uxz8B7yWI2qlzn-4">
          <mxGeometry y="178" width="160" as="geometry" />
        </mxCell>
        <mxCell id="mBPvuGCudgX4nE0HCD5w-16" value="" style="whiteSpace=wrap;html=1;rounded=0;shadow=0;fontFamily=Verdana;fontSize=10;fontStyle=0;strokeWidth=1;fillColor=none;swimlaneFillColor=#ffffff;startSize=26;comic=0;" vertex="1" parent="8NRc52Uxz8B7yWI2qlzn-4">
          <mxGeometry y="178" width="160" as="geometry" />
        </mxCell>
        <mxCell id="8NRc52Uxz8B7yWI2qlzn-8" value="Role&#xa;&#xa;" style="swimlane;fontStyle=1;align=center;verticalAlign=top;childLayout=stackLayout;horizontal=1;startSize=26;horizontalStack=0;resizeParent=1;resizeParentMax=0;resizeLast=0;collapsible=1;marginBottom=0;" parent="1" vertex="1">
          <mxGeometry x="500" y="160" width="160" height="154" as="geometry" />
        </mxCell>
        <mxCell id="8NRc52Uxz8B7yWI2qlzn-9" value="- id: int" style="text;strokeColor=none;fillColor=none;align=left;verticalAlign=top;spacingLeft=4;spacingRight=4;overflow=hidden;rotatable=0;points=[[0,0.5],[1,0.5]];portConstraint=eastwest;" parent="8NRc52Uxz8B7yWI2qlzn-8" vertex="1">
          <mxGeometry y="26" width="160" height="24" as="geometry" />
        </mxCell>
        <mxCell id="8NRc52Uxz8B7yWI2qlzn-54" value="- title: string" style="text;strokeColor=none;fillColor=none;align=left;verticalAlign=top;spacingLeft=4;spacingRight=4;overflow=hidden;rotatable=0;points=[[0,0.5],[1,0.5]];portConstraint=eastwest;" parent="8NRc52Uxz8B7yWI2qlzn-8" vertex="1">
          <mxGeometry y="50" width="160" height="24" as="geometry" />
        </mxCell>
        <mxCell id="8NRc52Uxz8B7yWI2qlzn-55" value="- type: string" style="text;strokeColor=none;fillColor=none;align=left;verticalAlign=top;spacingLeft=4;spacingRight=4;overflow=hidden;rotatable=0;points=[[0,0.5],[1,0.5]];portConstraint=eastwest;" parent="8NRc52Uxz8B7yWI2qlzn-8" vertex="1">
          <mxGeometry y="74" width="160" height="24" as="geometry" />
        </mxCell>
        <mxCell id="8NRc52Uxz8B7yWI2qlzn-10" value="" style="line;strokeWidth=1;fillColor=none;align=left;verticalAlign=middle;spacingTop=-1;spacingLeft=3;spacingRight=3;rotatable=0;labelPosition=right;points=[];portConstraint=eastwest;" parent="8NRc52Uxz8B7yWI2qlzn-8" vertex="1">
          <mxGeometry y="98" width="160" height="8" as="geometry" />
        </mxCell>
        <mxCell id="8NRc52Uxz8B7yWI2qlzn-11" value="+ getTitle(): string" style="text;strokeColor=none;fillColor=none;align=left;verticalAlign=top;spacingLeft=4;spacingRight=4;overflow=hidden;rotatable=0;points=[[0,0.5],[1,0.5]];portConstraint=eastwest;" parent="8NRc52Uxz8B7yWI2qlzn-8" vertex="1">
          <mxGeometry y="106" width="160" height="24" as="geometry" />
        </mxCell>
        <mxCell id="8NRc52Uxz8B7yWI2qlzn-57" value="+ getType(): string&#xa;" style="text;strokeColor=none;fillColor=none;align=left;verticalAlign=top;spacingLeft=4;spacingRight=4;overflow=hidden;rotatable=0;points=[[0,0.5],[1,0.5]];portConstraint=eastwest;" parent="8NRc52Uxz8B7yWI2qlzn-8" vertex="1">
          <mxGeometry y="130" width="160" height="24" as="geometry" />
        </mxCell>
        <mxCell id="8NRc52Uxz8B7yWI2qlzn-84" value="" style="whiteSpace=wrap;html=1;fontStyle=1;verticalAlign=top;startSize=26;" parent="8NRc52Uxz8B7yWI2qlzn-8" vertex="1">
          <mxGeometry y="154" width="160" as="geometry" />
        </mxCell>
        <mxCell id="8NRc52Uxz8B7yWI2qlzn-85" value="" style="edgeStyle=orthogonalEdgeStyle;rounded=0;orthogonalLoop=1;jettySize=auto;html=1;endArrow=block;endFill=0;" parent="1" source="8NRc52Uxz8B7yWI2qlzn-12" target="8NRc52Uxz8B7yWI2qlzn-84" edge="1">
          <mxGeometry relative="1" as="geometry" />
        </mxCell>
        <mxCell id="mBPvuGCudgX4nE0HCD5w-7" value="" style="edgeStyle=orthogonalEdgeStyle;rounded=0;orthogonalLoop=1;jettySize=auto;html=1;endArrow=open;endFill=0;entryX=0;entryY=0.5;entryDx=0;entryDy=0;" edge="1" parent="1" source="8NRc52Uxz8B7yWI2qlzn-12" target="8NRc52Uxz8B7yWI2qlzn-22">
          <mxGeometry relative="1" as="geometry" />
        </mxCell>
        <mxCell id="8NRc52Uxz8B7yWI2qlzn-12" value="User" style="swimlane;fontStyle=1;align=center;verticalAlign=top;childLayout=stackLayout;horizontal=1;startSize=26;horizontalStack=0;resizeParent=1;resizeParentMax=0;resizeLast=0;collapsible=1;marginBottom=0;" parent="1" vertex="1">
          <mxGeometry x="500" y="350" width="160" height="258" as="geometry" />
        </mxCell>
        <mxCell id="8NRc52Uxz8B7yWI2qlzn-13" value="- id: int" style="text;strokeColor=none;fillColor=none;align=left;verticalAlign=top;spacingLeft=4;spacingRight=4;overflow=hidden;rotatable=0;points=[[0,0.5],[1,0.5]];portConstraint=eastwest;" parent="8NRc52Uxz8B7yWI2qlzn-12" vertex="1">
          <mxGeometry y="26" width="160" height="24" as="geometry" />
        </mxCell>
        <mxCell id="8NRc52Uxz8B7yWI2qlzn-66" value="- name: string" style="text;strokeColor=none;fillColor=none;align=left;verticalAlign=top;spacingLeft=4;spacingRight=4;overflow=hidden;rotatable=0;points=[[0,0.5],[1,0.5]];portConstraint=eastwest;" parent="8NRc52Uxz8B7yWI2qlzn-12" vertex="1">
          <mxGeometry y="50" width="160" height="24" as="geometry" />
        </mxCell>
        <mxCell id="8NRc52Uxz8B7yWI2qlzn-67" value="- login: string" style="text;strokeColor=none;fillColor=none;align=left;verticalAlign=top;spacingLeft=4;spacingRight=4;overflow=hidden;rotatable=0;points=[[0,0.5],[1,0.5]];portConstraint=eastwest;" parent="8NRc52Uxz8B7yWI2qlzn-12" vertex="1">
          <mxGeometry y="74" width="160" height="24" as="geometry" />
        </mxCell>
        <mxCell id="8NRc52Uxz8B7yWI2qlzn-65" value="- passwordHash: string" style="text;strokeColor=none;fillColor=none;align=left;verticalAlign=top;spacingLeft=4;spacingRight=4;overflow=hidden;rotatable=0;points=[[0,0.5],[1,0.5]];portConstraint=eastwest;" parent="8NRc52Uxz8B7yWI2qlzn-12" vertex="1">
          <mxGeometry y="98" width="160" height="24" as="geometry" />
        </mxCell>
        <mxCell id="8NRc52Uxz8B7yWI2qlzn-68" value="- role: Role&#xa;" style="text;strokeColor=none;fillColor=none;align=left;verticalAlign=top;spacingLeft=4;spacingRight=4;overflow=hidden;rotatable=0;points=[[0,0.5],[1,0.5]];portConstraint=eastwest;" parent="8NRc52Uxz8B7yWI2qlzn-12" vertex="1">
          <mxGeometry y="122" width="160" height="24" as="geometry" />
        </mxCell>
        <mxCell id="8NRc52Uxz8B7yWI2qlzn-14" value="" style="line;strokeWidth=1;fillColor=none;align=left;verticalAlign=middle;spacingTop=-1;spacingLeft=3;spacingRight=3;rotatable=0;labelPosition=right;points=[];portConstraint=eastwest;" parent="8NRc52Uxz8B7yWI2qlzn-12" vertex="1">
          <mxGeometry y="146" width="160" height="8" as="geometry" />
        </mxCell>
        <mxCell id="8NRc52Uxz8B7yWI2qlzn-15" value="+ getName(): string" style="text;strokeColor=none;fillColor=none;align=left;verticalAlign=top;spacingLeft=4;spacingRight=4;overflow=hidden;rotatable=0;points=[[0,0.5],[1,0.5]];portConstraint=eastwest;" parent="8NRc52Uxz8B7yWI2qlzn-12" vertex="1">
          <mxGeometry y="154" width="160" height="26" as="geometry" />
        </mxCell>
        <mxCell id="8NRc52Uxz8B7yWI2qlzn-71" value="+ getLogin(): string" style="text;strokeColor=none;fillColor=none;align=left;verticalAlign=top;spacingLeft=4;spacingRight=4;overflow=hidden;rotatable=0;points=[[0,0.5],[1,0.5]];portConstraint=eastwest;" parent="8NRc52Uxz8B7yWI2qlzn-12" vertex="1">
          <mxGeometry y="180" width="160" height="26" as="geometry" />
        </mxCell>
        <mxCell id="8NRc52Uxz8B7yWI2qlzn-72" value="+ getPasswordHash(): string" style="text;strokeColor=none;fillColor=none;align=left;verticalAlign=top;spacingLeft=4;spacingRight=4;overflow=hidden;rotatable=0;points=[[0,0.5],[1,0.5]];portConstraint=eastwest;" parent="8NRc52Uxz8B7yWI2qlzn-12" vertex="1">
          <mxGeometry y="206" width="160" height="26" as="geometry" />
        </mxCell>
        <mxCell id="8NRc52Uxz8B7yWI2qlzn-70" value="+ getRole(): Role" style="text;strokeColor=none;fillColor=none;align=left;verticalAlign=top;spacingLeft=4;spacingRight=4;overflow=hidden;rotatable=0;points=[[0,0.5],[1,0.5]];portConstraint=eastwest;" parent="8NRc52Uxz8B7yWI2qlzn-12" vertex="1">
          <mxGeometry y="232" width="160" height="26" as="geometry" />
        </mxCell>
        <mxCell id="8NRc52Uxz8B7yWI2qlzn-16" value="Product" style="swimlane;fontStyle=0;childLayout=stackLayout;horizontal=1;startSize=26;fillColor=none;horizontalStack=0;resizeParent=1;resizeParentMax=0;resizeLast=0;collapsible=1;marginBottom=0;" parent="1" vertex="1">
          <mxGeometry x="510" y="850" width="160" height="104" as="geometry" />
        </mxCell>
        <mxCell id="8NRc52Uxz8B7yWI2qlzn-17" value="+ search(): array" style="text;strokeColor=none;fillColor=none;align=left;verticalAlign=top;spacingLeft=4;spacingRight=4;overflow=hidden;rotatable=0;points=[[0,0.5],[1,0.5]];portConstraint=eastwest;" parent="8NRc52Uxz8B7yWI2qlzn-16" vertex="1">
          <mxGeometry y="26" width="160" height="26" as="geometry" />
        </mxCell>
        <mxCell id="8NRc52Uxz8B7yWI2qlzn-18" value="+ fetchAll(): array" style="text;strokeColor=none;fillColor=none;align=left;verticalAlign=top;spacingLeft=4;spacingRight=4;overflow=hidden;rotatable=0;points=[[0,0.5],[1,0.5]];portConstraint=eastwest;" parent="8NRc52Uxz8B7yWI2qlzn-16" vertex="1">
          <mxGeometry y="52" width="160" height="26" as="geometry" />
        </mxCell>
        <mxCell id="8NRc52Uxz8B7yWI2qlzn-19" value="- getDataFromSource()" style="text;strokeColor=none;fillColor=none;align=left;verticalAlign=top;spacingLeft=4;spacingRight=4;overflow=hidden;rotatable=0;points=[[0,0.5],[1,0.5]];portConstraint=eastwest;" parent="8NRc52Uxz8B7yWI2qlzn-16" vertex="1">
          <mxGeometry y="78" width="160" height="26" as="geometry" />
        </mxCell>
        <mxCell id="mBPvuGCudgX4nE0HCD5w-1" value="" style="whiteSpace=wrap;html=1;fontStyle=1;verticalAlign=top;startSize=26;" vertex="1" parent="8NRc52Uxz8B7yWI2qlzn-16">
          <mxGeometry y="104" width="160" as="geometry" />
        </mxCell>
        <mxCell id="mBPvuGCudgX4nE0HCD5w-12" value="" style="whiteSpace=wrap;html=1;rounded=0;shadow=0;fontFamily=Verdana;fontSize=10;fontStyle=0;strokeWidth=1;fillColor=none;swimlaneFillColor=#ffffff;startSize=26;comic=0;" vertex="1" parent="8NRc52Uxz8B7yWI2qlzn-16">
          <mxGeometry y="104" width="160" as="geometry" />
        </mxCell>
        <mxCell id="mBPvuGCudgX4nE0HCD5w-14" value="" style="whiteSpace=wrap;html=1;rounded=0;shadow=0;fontFamily=Verdana;fontSize=10;fontStyle=0;strokeWidth=1;fillColor=none;swimlaneFillColor=#ffffff;startSize=26;comic=0;" vertex="1" parent="8NRc52Uxz8B7yWI2qlzn-16">
          <mxGeometry y="104" width="160" as="geometry" />
        </mxCell>
        <mxCell id="8NRc52Uxz8B7yWI2qlzn-20" value="User" style="swimlane;fontStyle=0;childLayout=stackLayout;horizontal=1;startSize=26;fillColor=none;horizontalStack=0;resizeParent=1;resizeParentMax=0;resizeLast=0;collapsible=1;marginBottom=0;" parent="1" vertex="1">
          <mxGeometry x="700" y="450" width="140" height="140" as="geometry">
            <mxRectangle x="580" y="590" width="60" height="26" as="alternateBounds" />
          </mxGeometry>
        </mxCell>
        <mxCell id="8NRc52Uxz8B7yWI2qlzn-21" value="+ getById()" style="text;strokeColor=none;fillColor=none;align=left;verticalAlign=top;spacingLeft=4;spacingRight=4;overflow=hidden;rotatable=0;points=[[0,0.5],[1,0.5]];portConstraint=eastwest;" parent="8NRc52Uxz8B7yWI2qlzn-20" vertex="1">
          <mxGeometry y="26" width="140" height="26" as="geometry" />
        </mxCell>
        <mxCell id="8NRc52Uxz8B7yWI2qlzn-22" value="+ getByLogin()" style="text;strokeColor=none;fillColor=none;align=left;verticalAlign=top;spacingLeft=4;spacingRight=4;overflow=hidden;rotatable=0;points=[[0,0.5],[1,0.5]];portConstraint=eastwest;" parent="8NRc52Uxz8B7yWI2qlzn-20" vertex="1">
          <mxGeometry y="52" width="140" height="26" as="geometry" />
        </mxCell>
        <mxCell id="8NRc52Uxz8B7yWI2qlzn-27" value="- createUser()" style="text;strokeColor=none;fillColor=none;align=left;verticalAlign=top;spacingLeft=4;spacingRight=4;overflow=hidden;rotatable=0;points=[[0,0.5],[1,0.5]];portConstraint=eastwest;" parent="8NRc52Uxz8B7yWI2qlzn-20" vertex="1">
          <mxGeometry y="78" width="140" height="30" as="geometry" />
        </mxCell>
        <mxCell id="8NRc52Uxz8B7yWI2qlzn-23" value="- getDataFromSource()" style="text;strokeColor=none;fillColor=none;align=left;verticalAlign=top;spacingLeft=4;spacingRight=4;overflow=hidden;rotatable=0;points=[[0,0.5],[1,0.5]];portConstraint=eastwest;" parent="8NRc52Uxz8B7yWI2qlzn-20" vertex="1">
          <mxGeometry y="108" width="140" height="32" as="geometry" />
        </mxCell>
        <mxCell id="8NRc52Uxz8B7yWI2qlzn-41" value="" style="edgeStyle=orthogonalEdgeStyle;rounded=0;orthogonalLoop=1;jettySize=auto;html=1;dashed=1;endArrow=block;endFill=0;" parent="1" source="8NRc52Uxz8B7yWI2qlzn-31" target="5d2195bd80daf111-18" edge="1">
          <mxGeometry relative="1" as="geometry" />
        </mxCell>
        <mxCell id="8NRc52Uxz8B7yWI2qlzn-31" value="Security" style="swimlane;fontStyle=1;align=center;verticalAlign=top;childLayout=stackLayout;horizontal=1;startSize=26;horizontalStack=0;resizeParent=1;resizeParentMax=0;resizeLast=0;collapsible=1;marginBottom=0;" parent="1" vertex="1">
          <mxGeometry x="25" y="290" width="260" height="216" as="geometry" />
        </mxCell>
        <mxCell id="8NRc52Uxz8B7yWI2qlzn-35" value="- const SESSION_USER_IDENTITY = &#39;userId&#39;" style="text;strokeColor=none;fillColor=none;align=left;verticalAlign=top;spacingLeft=4;spacingRight=4;overflow=hidden;rotatable=0;points=[[0,0.5],[1,0.5]];portConstraint=eastwest;" parent="8NRc52Uxz8B7yWI2qlzn-31" vertex="1">
          <mxGeometry y="26" width="260" height="26" as="geometry" />
        </mxCell>
        <mxCell id="8NRc52Uxz8B7yWI2qlzn-32" value="- session: SessionInterface" style="text;strokeColor=none;fillColor=none;align=left;verticalAlign=top;spacingLeft=4;spacingRight=4;overflow=hidden;rotatable=0;points=[[0,0.5],[1,0.5]];portConstraint=eastwest;" parent="8NRc52Uxz8B7yWI2qlzn-31" vertex="1">
          <mxGeometry y="52" width="260" height="26" as="geometry" />
        </mxCell>
        <mxCell id="8NRc52Uxz8B7yWI2qlzn-33" value="" style="line;strokeWidth=1;fillColor=none;align=left;verticalAlign=middle;spacingTop=-1;spacingLeft=3;spacingRight=3;rotatable=0;labelPosition=right;points=[];portConstraint=eastwest;" parent="8NRc52Uxz8B7yWI2qlzn-31" vertex="1">
          <mxGeometry y="78" width="260" height="8" as="geometry" />
        </mxCell>
        <mxCell id="8NRc52Uxz8B7yWI2qlzn-34" value="+ getUser()" style="text;strokeColor=none;fillColor=none;align=left;verticalAlign=top;spacingLeft=4;spacingRight=4;overflow=hidden;rotatable=0;points=[[0,0.5],[1,0.5]];portConstraint=eastwest;" parent="8NRc52Uxz8B7yWI2qlzn-31" vertex="1">
          <mxGeometry y="86" width="260" height="26" as="geometry" />
        </mxCell>
        <mxCell id="8NRc52Uxz8B7yWI2qlzn-37" value="+ isLogged(): bool" style="text;strokeColor=none;fillColor=none;align=left;verticalAlign=top;spacingLeft=4;spacingRight=4;overflow=hidden;rotatable=0;points=[[0,0.5],[1,0.5]];portConstraint=eastwest;" parent="8NRc52Uxz8B7yWI2qlzn-31" vertex="1">
          <mxGeometry y="112" width="260" height="26" as="geometry" />
        </mxCell>
        <mxCell id="8NRc52Uxz8B7yWI2qlzn-39" value="+ authentication(): bool" style="text;strokeColor=none;fillColor=none;align=left;verticalAlign=top;spacingLeft=4;spacingRight=4;overflow=hidden;rotatable=0;points=[[0,0.5],[1,0.5]];portConstraint=eastwest;" parent="8NRc52Uxz8B7yWI2qlzn-31" vertex="1">
          <mxGeometry y="138" width="260" height="26" as="geometry" />
        </mxCell>
        <mxCell id="8NRc52Uxz8B7yWI2qlzn-38" value="+ logout(): void" style="text;strokeColor=none;fillColor=none;align=left;verticalAlign=top;spacingLeft=4;spacingRight=4;overflow=hidden;rotatable=0;points=[[0,0.5],[1,0.5]];portConstraint=eastwest;" parent="8NRc52Uxz8B7yWI2qlzn-31" vertex="1">
          <mxGeometry y="164" width="260" height="26" as="geometry" />
        </mxCell>
        <mxCell id="8NRc52Uxz8B7yWI2qlzn-36" value="# getUserRepository()" style="text;strokeColor=none;fillColor=none;align=left;verticalAlign=top;spacingLeft=4;spacingRight=4;overflow=hidden;rotatable=0;points=[[0,0.5],[1,0.5]];portConstraint=eastwest;" parent="8NRc52Uxz8B7yWI2qlzn-31" vertex="1">
          <mxGeometry y="190" width="260" height="26" as="geometry" />
        </mxCell>
        <mxCell id="8NRc52Uxz8B7yWI2qlzn-46" value="Basket" style="swimlane;fontStyle=1;align=center;verticalAlign=top;childLayout=stackLayout;horizontal=1;startSize=26;horizontalStack=0;resizeParent=1;resizeParentMax=0;resizeLast=0;collapsible=1;marginBottom=0;" parent="1" vertex="1">
          <mxGeometry x="40" y="564" width="220" height="268" as="geometry" />
        </mxCell>
        <mxCell id="8NRc52Uxz8B7yWI2qlzn-47" value="- const BASKET_DATA_KEY = &#39;basket&#39;" style="text;strokeColor=none;fillColor=none;align=left;verticalAlign=top;spacingLeft=4;spacingRight=4;overflow=hidden;rotatable=0;points=[[0,0.5],[1,0.5]];portConstraint=eastwest;" parent="8NRc52Uxz8B7yWI2qlzn-46" vertex="1">
          <mxGeometry y="26" width="220" height="26" as="geometry" />
        </mxCell>
        <mxCell id="8NRc52Uxz8B7yWI2qlzn-50" value="- session: SessionInterface" style="text;strokeColor=none;fillColor=none;align=left;verticalAlign=top;spacingLeft=4;spacingRight=4;overflow=hidden;rotatable=0;points=[[0,0.5],[1,0.5]];portConstraint=eastwest;" parent="8NRc52Uxz8B7yWI2qlzn-46" vertex="1">
          <mxGeometry y="52" width="220" height="26" as="geometry" />
        </mxCell>
        <mxCell id="8NRc52Uxz8B7yWI2qlzn-48" value="" style="line;strokeWidth=1;fillColor=none;align=left;verticalAlign=middle;spacingTop=-1;spacingLeft=3;spacingRight=3;rotatable=0;labelPosition=right;points=[];portConstraint=eastwest;" parent="8NRc52Uxz8B7yWI2qlzn-46" vertex="1">
          <mxGeometry y="78" width="220" height="8" as="geometry" />
        </mxCell>
        <mxCell id="8NRc52Uxz8B7yWI2qlzn-49" value="+ addProduct(): void" style="text;strokeColor=none;fillColor=none;align=left;verticalAlign=top;spacingLeft=4;spacingRight=4;overflow=hidden;rotatable=0;points=[[0,0.5],[1,0.5]];portConstraint=eastwest;" parent="8NRc52Uxz8B7yWI2qlzn-46" vertex="1">
          <mxGeometry y="86" width="220" height="26" as="geometry" />
        </mxCell>
        <mxCell id="8NRc52Uxz8B7yWI2qlzn-73" value="+ isProductInBasket(): bool" style="text;strokeColor=none;fillColor=none;align=left;verticalAlign=top;spacingLeft=4;spacingRight=4;overflow=hidden;rotatable=0;points=[[0,0.5],[1,0.5]];portConstraint=eastwest;" parent="8NRc52Uxz8B7yWI2qlzn-46" vertex="1">
          <mxGeometry y="112" width="220" height="26" as="geometry" />
        </mxCell>
        <mxCell id="8NRc52Uxz8B7yWI2qlzn-75" value="+ getProductsInfo(): array" style="text;strokeColor=none;fillColor=none;align=left;verticalAlign=top;spacingLeft=4;spacingRight=4;overflow=hidden;rotatable=0;points=[[0,0.5],[1,0.5]];portConstraint=eastwest;" parent="8NRc52Uxz8B7yWI2qlzn-46" vertex="1">
          <mxGeometry y="138" width="220" height="26" as="geometry" />
        </mxCell>
        <mxCell id="8NRc52Uxz8B7yWI2qlzn-78" value="+ checkout(): void" style="text;strokeColor=none;fillColor=none;align=left;verticalAlign=top;spacingLeft=4;spacingRight=4;overflow=hidden;rotatable=0;points=[[0,0.5],[1,0.5]];portConstraint=eastwest;" parent="8NRc52Uxz8B7yWI2qlzn-46" vertex="1">
          <mxGeometry y="164" width="220" height="26" as="geometry" />
        </mxCell>
        <mxCell id="8NRc52Uxz8B7yWI2qlzn-77" value="+ checkoutProcess(): void" style="text;strokeColor=none;fillColor=none;align=left;verticalAlign=top;spacingLeft=4;spacingRight=4;overflow=hidden;rotatable=0;points=[[0,0.5],[1,0.5]];portConstraint=eastwest;" parent="8NRc52Uxz8B7yWI2qlzn-46" vertex="1">
          <mxGeometry y="190" width="220" height="26" as="geometry" />
        </mxCell>
        <mxCell id="8NRc52Uxz8B7yWI2qlzn-76" value="# getProductRepository()" style="text;strokeColor=none;fillColor=none;align=left;verticalAlign=top;spacingLeft=4;spacingRight=4;overflow=hidden;rotatable=0;points=[[0,0.5],[1,0.5]];portConstraint=eastwest;" parent="8NRc52Uxz8B7yWI2qlzn-46" vertex="1">
          <mxGeometry y="216" width="220" height="26" as="geometry" />
        </mxCell>
        <mxCell id="8NRc52Uxz8B7yWI2qlzn-74" value="- getProductIds(): array" style="text;strokeColor=none;fillColor=none;align=left;verticalAlign=top;spacingLeft=4;spacingRight=4;overflow=hidden;rotatable=0;points=[[0,0.5],[1,0.5]];portConstraint=eastwest;" parent="8NRc52Uxz8B7yWI2qlzn-46" vertex="1">
          <mxGeometry y="242" width="220" height="26" as="geometry" />
        </mxCell>
        <mxCell id="8NRc52Uxz8B7yWI2qlzn-87" value="" style="whiteSpace=wrap;html=1;rounded=0;shadow=0;fontFamily=Verdana;fontSize=10;fontStyle=0;strokeWidth=1;fillColor=none;swimlaneFillColor=#ffffff;startSize=26;comic=0;" parent="8NRc52Uxz8B7yWI2qlzn-46" vertex="1">
          <mxGeometry y="268" width="220" as="geometry" />
        </mxCell>
        <mxCell id="mBPvuGCudgX4nE0HCD5w-8" value="" style="whiteSpace=wrap;html=1;fontStyle=1;verticalAlign=top;startSize=26;" vertex="1" parent="8NRc52Uxz8B7yWI2qlzn-46">
          <mxGeometry y="268" width="220" as="geometry" />
        </mxCell>
        <mxCell id="8NRc52Uxz8B7yWI2qlzn-79" value="Product" style="swimlane;fontStyle=0;childLayout=stackLayout;horizontal=1;startSize=26;fillColor=none;horizontalStack=0;resizeParent=1;resizeParentMax=0;resizeLast=0;collapsible=1;marginBottom=0;" parent="1" vertex="1">
          <mxGeometry x="315" y="970" width="150" height="104" as="geometry" />
        </mxCell>
        <mxCell id="8NRc52Uxz8B7yWI2qlzn-80" value="+ getInfo()" style="text;strokeColor=none;fillColor=none;align=left;verticalAlign=top;spacingLeft=4;spacingRight=4;overflow=hidden;rotatable=0;points=[[0,0.5],[1,0.5]];portConstraint=eastwest;" parent="8NRc52Uxz8B7yWI2qlzn-79" vertex="1">
          <mxGeometry y="26" width="150" height="26" as="geometry" />
        </mxCell>
        <mxCell id="8NRc52Uxz8B7yWI2qlzn-81" value="+ getAll(): array" style="text;strokeColor=none;fillColor=none;align=left;verticalAlign=top;spacingLeft=4;spacingRight=4;overflow=hidden;rotatable=0;points=[[0,0.5],[1,0.5]];portConstraint=eastwest;" parent="8NRc52Uxz8B7yWI2qlzn-79" vertex="1">
          <mxGeometry y="52" width="150" height="26" as="geometry" />
        </mxCell>
        <mxCell id="8NRc52Uxz8B7yWI2qlzn-82" value="# getProductRepository()" style="text;strokeColor=none;fillColor=none;align=left;verticalAlign=top;spacingLeft=4;spacingRight=4;overflow=hidden;rotatable=0;points=[[0,0.5],[1,0.5]];portConstraint=eastwest;" parent="8NRc52Uxz8B7yWI2qlzn-79" vertex="1">
          <mxGeometry y="78" width="150" height="26" as="geometry" />
        </mxCell>
        <mxCell id="8NRc52Uxz8B7yWI2qlzn-89" value="" style="whiteSpace=wrap;html=1;rounded=0;shadow=0;fontFamily=Verdana;fontSize=10;fontStyle=0;strokeWidth=1;fillColor=none;swimlaneFillColor=#ffffff;startSize=26;comic=0;" parent="8NRc52Uxz8B7yWI2qlzn-79" vertex="1">
          <mxGeometry y="104" width="150" as="geometry" />
        </mxCell>
        <mxCell id="8NRc52Uxz8B7yWI2qlzn-88" value="" style="edgeStyle=orthogonalEdgeStyle;rounded=0;orthogonalLoop=1;jettySize=auto;html=1;endArrow=open;endFill=0;dashed=1;" parent="1" source="17acba5748e5396b-2" target="8NRc52Uxz8B7yWI2qlzn-87" edge="1">
          <mxGeometry relative="1" as="geometry" />
        </mxCell>
        <mxCell id="17acba5748e5396b-2" value="&lt;font style=&quot;vertical-align: inherit&quot;&gt;&lt;font style=&quot;vertical-align: inherit&quot;&gt;OrderController&lt;br&gt;&lt;/font&gt;&lt;/font&gt;" style="swimlane;html=1;fontStyle=0;childLayout=stackLayout;horizontal=1;startSize=26;fillColor=none;horizontalStack=0;resizeParent=1;resizeLast=0;collapsible=1;marginBottom=0;swimlaneFillColor=#ffffff;rounded=0;shadow=0;comic=0;labelBackgroundColor=none;strokeWidth=1;fontFamily=Verdana;fontSize=10;align=center;" parent="1" vertex="1">
          <mxGeometry x="60" y="900" width="160" height="83" as="geometry" />
        </mxCell>
        <mxCell id="17acba5748e5396b-3" value="&lt;font style=&quot;vertical-align: inherit&quot;&gt;&lt;font style=&quot;vertical-align: inherit&quot;&gt;&lt;font style=&quot;vertical-align: inherit&quot;&gt;&lt;font style=&quot;vertical-align: inherit&quot;&gt;+&amp;nbsp;infoAction()&lt;/font&gt;&lt;/font&gt;&lt;/font&gt;&lt;/font&gt;" style="text;html=1;strokeColor=none;fillColor=none;align=left;verticalAlign=top;spacingLeft=4;spacingRight=4;whiteSpace=wrap;overflow=hidden;rotatable=0;points=[[0,0.5],[1,0.5]];portConstraint=eastwest;" parent="17acba5748e5396b-2" vertex="1">
          <mxGeometry y="26" width="160" height="26" as="geometry" />
        </mxCell>
        <mxCell id="17acba5748e5396b-4" value="&lt;font style=&quot;vertical-align: inherit&quot;&gt;&lt;font style=&quot;vertical-align: inherit&quot;&gt;+&amp;nbsp;checkoutAction()&lt;/font&gt;&lt;/font&gt;" style="text;html=1;strokeColor=none;fillColor=none;align=left;verticalAlign=top;spacingLeft=4;spacingRight=4;whiteSpace=wrap;overflow=hidden;rotatable=0;points=[[0,0.5],[1,0.5]];portConstraint=eastwest;" parent="17acba5748e5396b-2" vertex="1">
          <mxGeometry y="52" width="160" height="26" as="geometry" />
        </mxCell>
        <mxCell id="mBPvuGCudgX4nE0HCD5w-6" value="" style="whiteSpace=wrap;html=1;fontStyle=1;verticalAlign=top;startSize=26;" vertex="1" parent="1">
          <mxGeometry x="700" y="564" width="140" as="geometry" />
        </mxCell>
      </root>
    </mxGraphModel>
  </diagram>
</mxfile>
